<svg xmlns="http://www.w3.org/2000/svg" xmlns:xlink="http://www.w3.org/1999/xlink" version="1.1" x="0px" y="0px" viewBox="0 0 100 125" enable-background="new 0 0 100 100" xml:space="preserve"><polygon points="51,66.548 53.883,63.388 56.027,65.458 64.154,67.422 64.154,70.62 62.021,68.621 53.23,68.621 "/><polygon points="49,66.548 46.162,63.388 44.014,65.458 35.889,67.422 35.889,70.62 38.021,68.621 46.812,68.621 "/><polygon points="73.578,33.253 26.421,33.253 27.921,4.479 72.078,4.479 "/><polygon points="31.26,71.875 39.633,88.461 23.866,94.456 "/><polygon points="39.633,89.526 39.633,95.522 36.314,90.809 "/><polygon points="68.738,71.875 60.365,88.461 76.133,94.456 "/><polygon points="60.365,89.526 60.365,95.522 63.686,90.809 "/><polygon points="52.623,76.836 49.991,81.394 47.36,76.836 "/><path d="M98.5,35.785h-97v2.797h24.789v15.124l3.682,3.825h13.369L50,65.125l6.661-7.594h13.369l3.682-3.824V38.583H98.5V35.785z   M43.828,53.354l-9.304,0.012l-1.808-0.746l-1.151-4.557l1.319-1.455l8.378,2.495l3.605,3.077L43.828,53.354z M67.283,52.62  l-1.809,0.746l-9.305-0.012l-1.037-1.174l3.604-3.077l8.379-2.495l1.32,1.455L67.283,52.62z"/><text x="0" y="115" fill="#000000" font-size="5px" font-weight="bold" font-family="'Helvetica Neue', Helvetica, Arial-Unicode, Arial, Sans-serif">Created by dan lowenstein</text><text x="0" y="120" fill="#000000" font-size="5px" font-weight="bold" font-family="'Helvetica Neue', Helvetica, Arial-Unicode, Arial, Sans-serif">from the Noun Project</text></svg>